<svg xmlns="http://www.w3.org/2000/svg" width="38px" height="60px">
								<path fill-rule="evenodd" d="M37.747,50.660 L37.402,49.634 C37.586,49.184 37.688,48.691 37.688,48.175 C37.688,46.759 36.925,45.521 35.793,44.859 L30.144,28.086 L34.182,28.086 L34.182,28.405 C34.182,28.934 34.606,29.363 35.128,29.363 C35.651,29.363 36.074,28.934 36.074,28.405 L36.074,25.852 C36.074,25.323 35.651,24.894 35.128,24.894 C34.606,24.894 34.182,25.323 34.182,25.852 L34.182,26.171 L29.499,26.171 L24.673,11.844 C24.651,11.779 24.623,11.718 24.589,11.660 C24.626,11.395 24.646,11.123 24.646,10.850 C24.646,8.008 22.597,5.644 19.916,5.187 L19.916,0.956 C19.916,0.427 19.492,-0.001 18.970,-0.001 C18.448,-0.001 18.024,0.427 18.024,0.956 L18.024,5.187 C15.344,5.644 13.295,8.008 13.295,10.850 C13.295,11.196 13.326,11.536 13.385,11.869 L8.567,26.171 L3.758,26.171 L3.758,25.852 C3.758,25.323 3.334,24.894 2.812,24.894 C2.289,24.894 1.866,25.323 1.866,25.852 L1.866,28.405 C1.866,28.934 2.289,29.363 2.812,29.363 C3.334,29.363 3.758,28.934 3.758,28.405 L3.758,28.086 L7.922,28.086 L4.931,36.966 C4.763,37.466 5.027,38.011 5.521,38.181 C5.622,38.216 5.725,38.233 5.827,38.233 C6.220,38.233 6.588,37.982 6.722,37.584 L14.524,14.421 C14.921,14.928 15.405,15.369 15.959,15.719 L2.906,54.472 C2.577,54.199 2.308,53.856 2.132,53.460 C1.828,52.780 1.813,52.023 2.091,51.328 C2.098,51.311 2.104,51.295 2.110,51.277 L5.501,41.209 C5.669,40.708 5.405,40.164 4.911,39.994 C4.416,39.823 3.879,40.091 3.710,40.591 L2.288,44.813 C1.076,45.478 0.313,46.750 0.313,48.174 C0.313,48.709 0.424,49.235 0.635,49.719 L0.327,50.635 C-0.136,51.813 -0.108,53.095 0.408,54.249 C0.801,55.129 1.458,55.864 2.271,56.357 L1.471,58.732 C1.303,59.233 1.567,59.776 2.061,59.947 C2.162,59.982 2.265,59.998 2.367,59.998 C2.760,59.998 3.128,59.748 3.262,59.350 L5.905,51.502 C7.080,50.827 7.819,49.566 7.819,48.174 C7.819,47.665 7.718,47.161 7.525,46.694 L13.792,28.085 L18.024,28.085 L18.024,29.681 C18.024,30.210 18.447,30.639 18.970,30.639 C19.492,30.639 19.916,30.210 19.916,29.681 L19.916,28.085 L24.148,28.085 L30.415,46.693 C30.226,47.150 30.121,47.650 30.121,48.174 C30.121,49.598 30.893,50.842 32.035,51.502 L34.678,59.350 C34.812,59.748 35.180,59.998 35.573,59.998 C35.675,59.998 35.778,59.982 35.879,59.947 C36.373,59.776 36.637,59.233 36.469,58.732 L35.669,56.358 C37.563,55.220 38.484,52.846 37.747,50.660 ZM32.013,48.175 C32.013,47.119 32.861,46.260 33.904,46.260 C34.947,46.260 35.796,47.119 35.796,48.175 C35.796,49.231 34.947,50.090 33.904,50.090 C32.861,50.090 32.013,49.231 32.013,48.175 ZM33.626,44.357 C32.968,44.405 32.356,44.624 31.834,44.972 L21.981,15.719 C22.577,15.342 23.091,14.862 23.504,14.307 L33.626,44.357 ZM19.916,15.637 C19.916,16.165 19.492,16.595 18.970,16.595 C18.448,16.595 18.024,16.165 18.024,15.637 C18.024,15.571 18.031,15.508 18.043,15.446 C18.132,15.008 18.514,14.679 18.970,14.679 C19.426,14.679 19.808,15.008 19.896,15.444 C19.909,15.508 19.916,15.571 19.916,15.637 ZM18.970,7.020 C21.056,7.020 22.754,8.738 22.754,10.850 C22.754,12.075 22.179,13.201 21.239,13.913 C20.720,13.216 19.896,12.764 18.970,12.764 C18.044,12.764 17.220,13.216 16.701,13.913 C15.761,13.201 15.186,12.075 15.186,10.850 C15.186,8.738 16.884,7.020 18.970,7.020 ZM19.916,26.171 L19.916,24.575 C19.916,24.047 19.492,23.618 18.970,23.618 C18.448,23.618 18.024,24.047 18.024,24.575 L18.024,26.171 L14.437,26.171 L17.224,17.898 C17.706,18.280 18.312,18.509 18.970,18.509 C19.628,18.509 20.234,18.280 20.716,17.898 L23.503,26.171 L19.916,26.171 L19.916,26.171 ZM35.036,54.478 L34.198,51.992 C34.855,51.940 35.465,51.720 35.986,51.371 C36.333,52.527 35.925,53.753 35.036,54.478 Z"></path>
								</svg>